<?xml version="1.0" encoding="UTF-8"?> <svg xmlns="http://www.w3.org/2000/svg" width="40" height="40" viewBox="0 0 40 40" fill="none"><path d="M36.4133 2.00667H3.58667C2.71333 2.00667 2 2.71333 2 3.59333V36.4133C2 37.2867 2.70667 38 3.58667 38H36.4133C37.2867 38 38 37.2933 38 36.4133V3.58667C38 2.71333 37.2933 2 36.4133 2V2.00667ZM14 32.6667H7.33333V26H14V32.6667ZM14 14H7.33333V7.33333H14V14ZM32.6667 32.6667H26V26H32.6667V32.6667ZM32.6667 14H26V7.33333H32.6667V14Z" fill="#C8FAA4"></path><path d="M18.0003 19.3398H7.33366C6.96699 19.3398 6.66699 19.6398 6.66699 20.0065C6.66699 20.3732 6.96699 20.6732 7.33366 20.6732H17.3337V23.9998C17.3337 24.3665 17.6337 24.6665 18.0003 24.6665C18.367 24.6665 18.667 24.3665 18.667 23.9998V20.0065C18.667 19.6398 18.367 19.3398 18.0003 19.3398Z" fill="#0B1736"></path><path d="M19.9938 27.333C19.6271 27.333 19.3271 27.633 19.3271 27.9997V32.6663C19.3271 33.033 19.6271 33.333 19.9938 33.333C20.3605 33.333 20.6605 33.033 20.6605 32.6663V27.9997C20.6605 27.633 20.3605 27.333 19.9938 27.333Z" fill="#0B1736"></path><path d="M22.9073 15.3332H20.6673V7.33317C20.6673 6.9665 20.3673 6.6665 20.0007 6.6665C19.634 6.6665 19.334 6.9665 19.334 7.33317V15.9998C19.334 16.3665 19.634 16.6665 20.0007 16.6665H22.9073C23.274 16.6665 23.574 16.3665 23.574 15.9998C23.574 15.6332 23.274 15.3332 22.9073 15.3332Z" fill="#0B1736"></path><path d="M32.6605 19.3267H26.1872C25.8205 19.3267 25.5205 19.6267 25.5205 19.9933C25.5205 20.36 25.8205 20.66 26.1872 20.66H32.6605C33.0272 20.66 33.3272 20.36 33.3272 19.9933C33.3272 19.6267 33.0272 19.3267 32.6605 19.3267Z" fill="#0B1736"></path><path d="M14.0003 25.333H7.33366C6.96699 25.333 6.66699 25.633 6.66699 25.9997V32.6663C6.66699 33.033 6.96699 33.333 7.33366 33.333H14.0003C14.367 33.333 14.667 33.033 14.667 32.6663V25.9997C14.667 25.633 14.367 25.333 14.0003 25.333ZM13.3337 31.9997H8.00033V26.6663H13.3337V31.9997Z" fill="#0B1736"></path><path d="M6.66699 7.33317V13.9998C6.66699 14.3665 6.96699 14.6665 7.33366 14.6665H14.0003C14.367 14.6665 14.667 14.3665 14.667 13.9998V7.33317C14.667 6.9665 14.367 6.6665 14.0003 6.6665H7.33366C6.96699 6.6665 6.66699 6.9665 6.66699 7.33317ZM8.00033 7.99984H13.3337V13.3332H8.00033V7.99984Z" fill="#0B1736"></path><path d="M26.0007 14.6665H32.6673C33.034 14.6665 33.334 14.3665 33.334 13.9998V7.33317C33.334 6.9665 33.034 6.6665 32.6673 6.6665H26.0007C25.634 6.6665 25.334 6.9665 25.334 7.33317V13.9998C25.334 14.3665 25.634 14.6665 26.0007 14.6665ZM26.6673 7.99984H32.0007V13.3332H26.6673V7.99984Z" fill="#0B1736"></path><path d="M33.334 32.6663V25.9997C33.334 25.633 33.034 25.333 32.6673 25.333H26.0007C25.634 25.333 25.334 25.633 25.334 25.9997V32.6663C25.334 33.033 25.634 33.333 26.0007 33.333H32.6673C33.034 33.333 33.334 33.033 33.334 32.6663ZM32.0007 31.9997H26.6673V26.6663H32.0007V31.9997Z" fill="#0B1736"></path><path d="M12.7738 37.3334H3.96044C3.22044 37.3334 2.62044 36.7334 2.62044 35.9934V27.1867C2.62044 26.82 2.32044 26.52 1.95378 26.52C1.58711 26.52 1.28711 26.82 1.28711 27.1867V35.9934C1.28711 37.4667 2.48711 38.6667 3.96044 38.6667H12.7804C13.1471 38.6667 13.4471 38.3667 13.4471 38C13.4471 37.6334 13.1471 37.3334 12.7804 37.3334H12.7738Z" fill="#0B1736"></path><path d="M38.0005 26.5132C37.6338 26.5132 37.3338 26.8132 37.3338 27.1799V35.9865C37.3338 36.7265 36.7338 37.3265 35.9938 37.3265H27.1872C26.8205 37.3265 26.5205 37.6265 26.5205 37.9932C26.5205 38.3599 26.8205 38.6599 27.1872 38.6599H35.9938C37.4672 38.6599 38.6672 37.4599 38.6672 35.9865V27.1799C38.6672 26.8132 38.3672 26.5132 38.0005 26.5132Z" fill="#0B1736"></path><path d="M35.9938 1.27979H27.1872C26.8205 1.27979 26.5205 1.57979 26.5205 1.94645C26.5205 2.31312 26.8205 2.61312 27.1872 2.61312H35.9938C36.7338 2.61312 37.3338 3.21312 37.3338 3.95312V12.7665C37.3338 13.1331 37.6338 13.4331 38.0005 13.4331C38.3672 13.4331 38.6672 13.1331 38.6672 12.7665V3.95312C38.6672 2.47978 37.4672 1.27979 35.9938 1.27979Z" fill="#0B1736"></path><path d="M1.94694 13.4398C2.31361 13.4398 2.61361 13.1398 2.61361 12.7731V3.95312C2.61361 3.21312 3.21361 2.61312 3.95361 2.61312H12.7736C13.1403 2.61312 13.4403 2.31312 13.4403 1.94645C13.4403 1.57979 13.1403 1.27979 12.7736 1.27979H3.96027C2.48027 1.27979 1.28027 2.47978 1.28027 3.95312V12.7665C1.28027 13.1331 1.58027 13.4331 1.94694 13.4331V13.4398Z" fill="#0B1736"></path></svg> 